<svg xmlns="http://www.w3.org/2000/svg" viewBox="0 0 800 124"><path d="M208 3.29c3.42-1.12 6.91.36 10.11 1.52 6.04 2.55 9.11 9.08 10.01 15.23 1.42 10.3-.54 20.73-3.45 30.61-5.88 18.96-15.42 37.34-30.17 50.92-9.4 8.57-21.47 15.29-34.5 15.09-8.94.04-17.66-4.51-22.87-11.76-8.07-11-10.59-25.54-8.01-38.82 2.96-16.08 11.87-30.4 22.47-42.58 2.95-3.61 7.26-5.65 11.44-7.47 6.13-2.56 12.43-4.71 18.81-6.6-1.67 2.41-3.47 4.73-5.56 6.79-7.69 7.44-13.54 16.69-17.28 26.7-5.49 12.95-8.46 27.31-6.13 41.33 1.97 8.75 9.87 16.44 19.1 16.54 9.5-.36 18.41-5.12 25.05-11.75 11.46-11.71 18-27.42 21.45-43.24 1.53-8.09 2.8-16.51 1.16-24.69-1.04-4.13-3.24-8.52-7.27-10.4-5.31-1.64-10.59 1.82-13.89 5.74-5.36 6.65-8.22 15.6-6.85 24.1 1.29 4.07 6.15 4.41 9.72 4.77.06 3.91-1.73 8.01-5.59 9.46-6.86 2.74-16.73.43-19.23-7.25-2.54-8.33-.08-17.45 4.23-24.76C186.94 13.2 196.63 5.45 208 3.29Z"/><circle cx="778.214" cy="20.387" r="14.233" fill="none" stroke="#000" stroke-linecap="round" stroke-linejoin="round" stroke-width="2.992"/><g font-family="sans-serif" font-size="32" font-weight="400" letter-spacing="0" style="line-height:125%" word-spacing="0"><path d="M784.479 28.74q0 .11-.041.192t-.178.137q-.137.055-.383.082-.246.027-.656.027-.355 0-.588-.027-.219-.027-.355-.082-.137-.068-.219-.178-.068-.11-.123-.273l-1.627-4.17q-.287-.711-.602-1.299-.3-.601-.724-1.025-.424-.438-.998-.67-.574-.246-1.381-.246h-1.572v7.533q0 .11-.069.191-.054.082-.191.137-.123.041-.356.068-.218.041-.56.041-.342 0-.574-.04-.22-.028-.356-.069-.137-.055-.191-.137-.055-.082-.055-.191V12.362q0-.533.273-.738.288-.22.602-.22h3.76q.67 0 1.107.042.451.027.807.068 1.025.178 1.805.56.793.384 1.326.972.533.587.793 1.353.273.752.273 1.668 0 .889-.246 1.6-.232.697-.684 1.244-.45.533-1.08.93-.629.396-1.408.67.438.19.793.492.356.287.656.697.315.41.588.943.274.533.547 1.203l1.586 3.897q.191.492.246.697.055.191.055.3zm-3.541-12.427q0-1.039-.465-1.75-.465-.724-1.559-1.039-.341-.096-.779-.137-.424-.04-1.121-.04h-1.982v5.96h2.296q.93 0 1.6-.218.684-.233 1.135-.63.451-.41.656-.956.219-.547.219-1.19z" font-family="Calibri" font-size="28" style="-inkscape-font-specification:Calibri"/></g><path d="M564.342 17.036c-3.008.01-6.008.223-8.933.573-8.04 1.11-15.69 4.651-21.75 10.041-6.93 6.5-10.608 15.73-12.368 24.9-2.54 13.68-1.811 28.15 3.089 41.23 3.66 9.8 12.06 17.61 22.13 20.47 8.99 2.5 18.63 2.61 27.75.72 10.99-2.29 20.81-9.75 25.66-19.92 6.02-12.33 6.98-26.58 5.55-40.06-1.41-11.55-5.72-23.85-15.66-30.74-7.35-5.445-16.444-7.245-25.468-7.214zm-.622 10.689c6.901.016 13.794 1.867 18.93 6.625 7.25 6.76 9.57 17.1 9.94 26.66.48 10.78.12 22.37-5.78 31.8-4.07 7.03-11.78 11.65-19.83 12.32-8.28.81-17.58-.31-23.86-6.29-6.72-6.3-8.86-15.8-9.66-24.63-.56-10.6-.36-21.75 4.32-31.52 3.29-6.68 9.42-12.07 16.69-13.95 2.975-.65 6.114-1.022 9.25-1.015zM4.72 24.95c-.26-2.83 1.38-6.18 4.5-6.42 4.19-.39 8.45-.35 12.63.22 3.16.43 5.51 3.02 6.69 5.83 9.69 23.94 18.89 48.1 28.74 71.97 10.26-23.63 19.53-47.69 29.61-71.41 1.25-3.04 3.5-6.29 7.09-6.54 4.09-.35 8.3-.6 12.36.12 2.75.61 3.71 3.74 3.55 6.23-.01 29.04.01 58.08-.01 87.12.43 3.2-3.7 3.1-5.85 3.19-2.36-.13-7.08.41-6.72-3.17-.11-27.87.16-55.74-.13-83.61-12.1 28.56-23.1 57.59-35.14 86.18-3.67.74-7.48.85-11.08-.29C39.63 85.9 28.91 57.17 17.6 28.7c-.59 28.57.21 57.18-.4 85.75-4.09 1-8.41 1.16-12.43-.26-.1-29.74 0-59.49-.05-89.24ZM244.19 21.94c-.07-1.43.1-3.44 1.94-3.54 3.41-.35 7.41-1.05 10.46.91.27 15.89.03 31.8.11 47.7.1 6.84-.42 13.74.84 20.5 1.5 7.64 6.93 14.87 14.67 16.93 8.1 2.14 17.67 1.52 24.32-4.02 5.82-5.02 7.67-13.07 7.65-20.45-.01-20.06.12-40.13-.06-60.19 2.89-2.6 7.22-1.73 10.75-1.36 1.85.07 1.92 2.14 1.87 3.53-.03 19.7-.01 39.41-.01 59.11-.05 8.87-2.97 17.93-9.04 24.53-5.24 5.87-12.83 9.3-20.58 10.18-10.44 1.4-21.86-.02-30.52-6.4-8.51-6.26-12.21-17.2-12.34-27.43-.1-20 0-40-.06-60ZM350.39 18.72c3.74-.71 7.64-.49 11.41 0 3.47.46 5.44 3.74 7.13 6.45 13.02 24 25.85 48.11 38.4 72.36-.04-25.51-.02-51.03 0-76.54-.16-2.96 3.59-2.66 5.6-2.83 2.37.1 6.75-.46 6.91 2.94.05 29.01-.01 58.02.03 87.03.15 2.69-.79 6.25-3.94 6.62-4.38.53-9.88 1.12-13.16-2.51-3.24-3.37-4.86-7.89-7.22-11.85-12.08-22.7-24.88-45.03-36.16-68.14.19 26.25.08 52.53.13 78.79-.1 1.33.23 3.55-1.68 3.7-3.1.77-6.49.79-9.56-.14-1.47-.4-1.27-2.34-1.35-3.51.01-28.71-.01-57.41.01-86.12-.05-2.45.57-5.75 3.45-6.25ZM439.28 27.94c-.25-3.05-1.84-9.25 2.72-9.57 21.97-.05 43.95-.07 65.91.01 3.14-.22 2.82 3.54 2.85 5.66-.14 1.72.25 4.17-1.77 4.94-9.29.3-18.61 0-27.91.14-.01 28.37.01 56.75-.01 85.13-4.01 1.37-8.32 1.22-12.38.15-.25-28.43-.04-56.87-.1-85.3-9.33 0-18.66-.01-27.98.01l-1.33-1.17ZM616.37 18.77c4.32-.8 9.23-1.48 13.34.34 8.02 15.09 15.06 30.75 21.98 46.39 6.49-15.19 13.52-30.13 20.8-44.95.51-1.04 1.29-2.16 2.58-2.24 3.74-.46 7.61-.42 11.28.55-1.32 4.76-4.08 8.9-6.14 13.33-7.36 15.03-15.19 29.84-22.38 44.95-.47 12.16.13 24.37-.27 36.53-3.31 2.65-8.54 1.63-12.45.56-.02-11.76.02-23.53 0-35.29.14-2.18-1.16-4.02-2.05-5.89-8.29-16.43-16.57-32.86-24.82-49.3-.81-1.59-1.35-3.29-1.87-4.98ZM726.99 18.06c-3.05.24-7.88-.89-9.07 2.93-9.85 27.06-19.67 54.13-29.52 81.18-1.41 3.95-3.08 7.83-3.83 11.98 3.56 1.39 7.55 1.44 11.25.61 1.35-.24 1.68-1.75 2.17-2.8 2.65-7.54 5.15-15.13 7.77-22.68 13.43.02 26.86-.01 40.29.02 3.21 8.33 5.62 17 9.27 25.14 4.17 1.21 8.93 1.32 13.02-.34-10.89-31.11-22.3-62.04-33.43-93.07-.94-3.41-5.2-2.78-7.92-2.97zm-1.13 12.62c5.52 16.27 11.23 32.48 16.94 48.69-11.32.1-22.64.06-33.95.02 5.71-16.22 10.96-32.61 17.01-48.71z"/></svg>